<svg width="256px" height="256px" viewBox="-0.24 -0.24 24.48 24.48" fill="none" xmlns="http://www.w3.org/2000/svg" transform="matrix(1, 0, 0, -1, 0, 0)" stroke="#000000"><g id="SVGRepo_bgCarrier" stroke-width="0"><path transform="translate(-0.24, -0.24), scale(1.53)" fill="#ffffff" d="M9.166.33a2.25 2.25 0 00-2.332 0l-5.25 3.182A2.25 2.25 0 00.5 5.436v5.128a2.25 2.25 0 001.084 1.924l5.25 3.182a2.25 2.25 0 002.332 0l5.25-3.182a2.25 2.25 0 001.084-1.924V5.436a2.25 2.25 0 00-1.084-1.924L9.166.33z" strokewidth="0"></path></g><g id="SVGRepo_tracerCarrier" stroke-linecap="round" stroke-linejoin="round"></g><g id="SVGRepo_iconCarrier"> <g clip-path="url(#clip0_429_11032)"> <path d="M12 3L19.7942 7.5V15.3453C19.7942 16.0598 19.413 16.7201 18.7942 17.0774L13 20.4226C12.3812 20.7799 11.6188 20.7799 11 20.4226L5.20578 17.0774C4.58698 16.7201 4.20578 16.0598 4.20578 15.3453V7.5L12 3Z" stroke="#292929" stroke-width="0.36" stroke-linecap="round" stroke-linejoin="round"></path> <path d="M12 7V12L7.66986 14.5" stroke="#292929" stroke-width="0.36" stroke-linecap="round" stroke-linejoin="round"></path> <path d="M12 12L16.3301 14.5" stroke="#292929" stroke-width="0.36" stroke-linecap="round" stroke-linejoin="round"></path> </g> <defs> <clipPath id="clip0_429_11032"> <rect width="24" height="24" fill="white"></rect> </clipPath> </defs> </g></svg>
